<svg width="15" height="15" viewBox="0 0 15 15" fill="none" xmlns="http://www.w3.org/2000/svg">
<path d="M11.1756 6.19812C11.4187 6.44125 11.4187 6.83875 11.1756 7.08187L8.0825 10.1756C7.83938 10.4187 7.44188 10.4187 7.19875 10.1756L3.4425 6.41937C3.19938 6.17625 3.00063 5.69625 3.00063 5.3525L3 2.625C3 2.28125 3.28125 2 3.625 2H6.3525C6.69625 2 7.17625 2.19875 7.41937 2.44187L11.1756 6.19812ZM4.52313 3.535C4.16125 3.895 4.16187 4.48125 4.5225 4.84312C4.88375 5.20375 5.47 5.20375 5.83188 4.84375C6.19187 4.4825 6.19187 3.89562 5.83188 3.53437C5.46875 3.17437 4.88313 3.17375 4.52313 3.535Z" fill="#4F77AA"/>
</svg>
